<svg width="240" height="240" viewBox="0 0 240 240" fill="none" xmlns="http://www.w3.org/2000/svg">
<path id="Ellipse 67" d="M120 6.79077C120 3.04033 123.043 -0.0200348 126.788 0.192047C150.549 1.53787 173.432 9.92596 192.482 24.3632C213.339 40.1707 228.457 62.3635 235.532 87.5599C242.607 112.756 241.251 139.575 231.67 163.929C222.09 188.283 204.81 208.838 182.464 222.461C160.119 236.084 133.932 242.028 107.895 239.388C81.8575 236.748 57.3971 225.668 38.2406 207.837C19.0841 190.006 6.28199 166.402 1.78492 140.62C-2.32231 117.074 0.703686 92.8904 10.3922 71.1517C11.919 67.7261 16.0334 66.4229 19.3672 68.1409C22.701 69.8589 23.9892 73.9468 22.4873 77.3834C14.1414 96.4792 11.5663 117.658 15.1644 138.286C19.1525 161.15 30.5057 182.083 47.4941 197.896C64.4824 213.709 86.1745 223.534 109.265 225.876C132.355 228.217 155.578 222.945 175.395 210.864C195.211 198.783 210.535 180.555 219.031 158.957C227.528 137.359 228.73 113.576 222.456 91.2314C216.182 68.8867 202.775 49.2057 184.278 35.1873C167.59 22.5395 147.584 15.1268 126.786 13.7981C123.044 13.559 120 10.5412 120 6.79077Z" fill="#00008D"/>
</svg>
