<svg width="120" height="185" viewBox="0 0 120 185" fill="none" xmlns="http://www.w3.org/2000/svg">
<path id="Ellipse 67" d="M0 6.79077C0 3.04033 3.043 -0.0200348 6.78743 0.192078C26.2345 1.29369 45.1582 7.11603 61.903 17.1991C80.5905 28.452 95.8571 44.5861 106.061 63.8663C116.266 83.1465 121.021 104.843 119.817 126.624C118.738 146.141 112.911 165.063 102.885 181.763C100.955 184.978 96.713 185.774 93.6118 183.665C90.5105 181.555 89.7268 177.342 91.6339 174.112C100.284 159.465 105.314 142.925 106.256 125.875C107.324 106.559 103.107 87.3175 94.0574 70.2195C85.0081 53.1214 71.4693 38.8134 54.8968 28.834C40.2675 20.0248 23.7627 14.8828 6.78639 13.7981C3.04359 13.559 0 10.5412 0 6.79077Z" fill="#00008D"/>
</svg>
