<svg width="212" height="240" viewBox="0 0 212 240" fill="none" xmlns="http://www.w3.org/2000/svg">
<path id="Ellipse 67" d="M92 6.79077C92 3.04033 95.043 -0.0200348 98.7874 0.192078C116.791 1.21193 134.364 6.27856 150.185 15.0501C167.99 24.921 182.99 39.1593 193.775 56.4252C204.561 73.6911 210.776 93.417 211.837 113.747C212.898 134.077 208.769 154.343 199.839 172.637C190.91 190.932 177.472 206.654 160.792 218.324C144.111 229.995 124.736 237.23 104.489 239.348C84.2419 241.467 63.7886 238.4 45.0535 230.436C28.4051 223.358 13.6 212.621 1.7207 199.055C-0.750038 196.233 -0.20927 191.951 2.74752 189.644C5.70431 187.337 9.95573 187.88 12.4468 190.684C22.8943 202.442 35.8393 211.761 50.3669 217.937C66.9815 225 85.1199 227.719 103.075 225.841C121.031 223.962 138.213 217.546 153.006 207.196C167.799 196.847 179.715 182.904 187.634 166.68C195.553 150.456 199.215 132.484 198.274 114.455C197.333 96.4257 191.821 78.9323 182.257 63.6205C172.692 48.3088 159.389 35.682 143.6 26.9282C129.794 19.2741 114.484 14.8011 98.7862 13.7981C95.0434 13.559 92 10.5412 92 6.79077Z" fill="#00008D"/>
</svg>
